<svg xmlns="http://www.w3.org/2000/svg" xmlns:xlink="http://www.w3.org/1999/xlink" width="288.599" height="24.751" viewBox="0 0 288.599 24.751">
  <defs>
    <clipPath id="clip-path">
      <rect id="Rectangle_12" data-name="Rectangle 12" width="288.599" height="24.751" fill="none"/>
    </clipPath>
  </defs>
  <g id="Group_603" data-name="Group 603" clip-path="url(#clip-path)">
    <path id="Path_608" data-name="Path 608" d="M244.8,133.042a3.045,3.045,0,1,1,3.053-3.053,3.025,3.025,0,0,1-3.053,3.053m.017-5.787a2.742,2.742,0,1,0,2.716,2.734,2.716,2.716,0,0,0-2.716-2.734m.673,3.045.858,1.2h-.723l-.774-1.1h-.665v1.1h-.606v-3.188H245c.739,0,1.228.379,1.228,1.017a.953.953,0,0,1-.741.968m-.513-1.438h-.79v1.009h.79c.4,0,.63-.193.63-.5,0-.328-.235-.505-.63-.505" transform="translate(40.751 -126.55)" fill="#112056"/>
    <path id="Path_609" data-name="Path 609" d="M82.665,145H82.53l-7.364-11.03v16.814H71.1v-23.54h4.4l7.163,11.132,7.163-11.132h4.4v23.54H90.1V133.9Z" transform="translate(-23.504 -126.439)" fill="#112056"/>
    <path id="Path_610" data-name="Path 610" d="M111.654,130.946H98.338v6.12h11.8v3.7h-11.8v6.322h13.484v3.7H94.2v-23.54h17.453Z" transform="translate(-14.805 -126.439)" fill="#112056"/>
    <path id="Path_611" data-name="Path 611" d="M122.806,150.786h-4.169V131.08H111.17v-3.834h19.1v3.834h-7.466Z" transform="translate(-8.416 -126.439)" fill="#112056"/>
    <path id="Path_612" data-name="Path 612" d="M144.775,150.787l-5.784-8.205h-5.178v8.205h-4.136v-23.54h10.492c5.414,0,8.744,2.858,8.744,7.466,0,3.9-2.321,6.255-5.616,7.162l6.355,8.912Zm-4.943-19.775h-6.019v7.9h6.053c2.959,0,4.843-1.546,4.843-3.968,0-2.588-1.816-3.935-4.876-3.935" transform="translate(-1.449 -126.439)" fill="#112056"/>
    <path id="Path_613" data-name="Path 613" d="M160.322,151.3a12.175,12.175,0,1,1,12.342-12.207A11.957,11.957,0,0,1,160.322,151.3m0-20.547c-4.673,0-7.937,3.732-7.937,8.34s3.33,8.406,8,8.406,7.938-3.733,7.938-8.34-3.33-8.406-8-8.406" transform="translate(5.469 -126.55)" fill="#112056"/>
    <path id="Path_614" data-name="Path 614" d="M188.426,131.013H175.042v6.424h11.871V141.2H175.042v9.583h-4.136v-23.54h17.52Z" transform="translate(14.075 -126.439)" fill="#112056"/>
    <path id="Path_615" data-name="Path 615" d="M188.321,127.247h4.136V147.02h12.376v3.766H188.321Z" transform="translate(20.632 -126.439)" fill="#112056"/>
    <path id="Path_616" data-name="Path 616" d="M214.937,151.3a12.175,12.175,0,1,1,12.343-12.207A11.957,11.957,0,0,1,214.937,151.3m0-20.547c-4.673,0-7.936,3.732-7.936,8.34s3.33,8.406,8,8.406,7.936-3.733,7.936-8.34-3.33-8.406-8-8.406" transform="translate(26.032 -126.55)" fill="#112056"/>
    <path id="Path_617" data-name="Path 617" d="M241.069,150.787l-5.784-8.205h-5.178v8.205H225.97v-23.54h10.492c5.414,0,8.744,2.858,8.744,7.466,0,3.9-2.319,6.255-5.616,7.162l6.355,8.912Zm-4.943-19.775h-6.019v7.9h6.052c2.96,0,4.843-1.546,4.843-3.968,0-2.588-1.816-3.935-4.876-3.935" transform="translate(34.807 -126.439)" fill="#112056"/>
    <path id="Path_618" data-name="Path 618" d="M47.981,126.66l-4.545,7.872,9.513,16.474h9.089Z" transform="translate(-33.919 -126.66)" fill="#112056"/>
    <path id="Path_619" data-name="Path 619" d="M55.917,126.66l-4.545,7.872,9.513,16.474h9.089Z" transform="translate(-30.931 -126.66)" fill="#768caf"/>
    <path id="Path_620" data-name="Path 620" d="M36.522,148.395l8.543-14.8,8.544,14.8Z" transform="translate(-36.522 -124.048)" fill="#768caf"/>
  </g>
</svg>
